<?xml version="1.0" encoding="UTF-8" standalone="no"?>
<svg
   width="32"
   height="32"
   viewBox="0 0 32 32"
   xmlns="http://www.w3.org/2000/svg"
   xmlns:svg="http://www.w3.org/2000/svg">
  <path
     d="m 4.5,5 a 0.5,0.5 0 1 0 0,-1 0.5,0.5 0 0 0 0,1 z M 3,4.5 a 0.5,0.5 0 1 1 -1,0 0.5,0.5 0 0 1 1,0 z"
     id="path3032" />
  <path
     d="M 0,4 A 2,2 0 0 1 2,2 h 12 a 2,2 0 0 1 2,2 V 5 A 2,2 0 0 1 14,7 H 8.5 v 3 a 1.5,1.5 0 0 1 1.5,1.5 h 5.5 a 0.5,0.5 0 0 1 0,1 H 10 A 1.5,1.5 0 0 1 8.5,14 h -1 A 1.5,1.5 0 0 1 6,12.5 H 0.5 a 0.5,0.5 0 0 1 0,-1 H 6 A 1.5,1.5 0 0 1 7.5,10 V 7 H 2 A 2,2 0 0 1 0,5 Z M 1,4 V 5 A 1,1 0 0 0 2,6 H 14 A 1,1 0 0 0 15,5 V 4 A 1,1 0 0 0 14,3 H 2 A 1,1 0 0 0 1,4 Z m 6,7.5 v 1 A 0.5,0.5 0 0 0 7.5,13 h 1 A 0.5,0.5 0 0 0 9,12.5 v -1 A 0.5,0.5 0 0 0 8.5,11 h -1 A 0.5,0.5 0 0 0 7,11.5 Z"
     id="path3034" />
</svg>
