<?xml version="1.0" encoding="UTF-8" standalone="no"?>
<!-- Created with Inkscape (http://www.inkscape.org/) -->

<svg
   width="32"
   height="32"
   viewBox="0 0 8.4666667 8.4666667"
   id="svg5"
   xmlns="http://www.w3.org/2000/svg"
   xmlns:svg="http://www.w3.org/2000/svg">
    <path
       style="fill:none;stroke:#000000;stroke-width:0.264583px;stroke-linecap:butt;stroke-linejoin:miter;stroke-opacity:1"
       d="M 0.0108047,0.00421647 0.98621415,3.1079757 0.97576083,5.7116003 1.7595846,8.3811075"
       id="path2647" />
    <path
       style="fill:none;stroke:#000000;stroke-width:0.264583px;stroke-linecap:butt;stroke-linejoin:miter;stroke-opacity:1"
       d="M 1.8854955,-0.00974035 2.8609049,3.0940189 2.8504516,5.6976435 3.6342754,8.3671507"
       id="path2647-3" />
    <path
       style="fill:none;stroke:#000000;stroke-width:0.264583px;stroke-linecap:butt;stroke-linejoin:miter;stroke-opacity:1"
       d="M 3.787298,0.00738904 4.7627074,3.1111483 4.7522541,5.7147728 5.5360779,8.3842801"
       id="path2647-3-6" />
    <path
       style="fill:none;stroke:#000000;stroke-width:0.264583px;stroke-linecap:butt;stroke-linejoin:miter;stroke-opacity:1"
       d="M 5.6034975,0.05170587 6.5789069,3.1554651 6.5684536,5.7590897 7.3522774,8.4285969"
       id="path2647-3-7" />
    <path
       style="fill:none;stroke:#000000;stroke-width:0.264583px;stroke-linecap:butt;stroke-linejoin:miter;stroke-opacity:1"
       d="M -0.02002822,2.8466425 0.78694216,2.6098176 2.7193578,2.7667492 4.5068767,2.4936891 6.3066493,2.7040295 7.605497,2.3562147"
       id="path2829" />
    <path
       style="fill:none;stroke:#000000;stroke-width:0.264583px;stroke-linecap:butt;stroke-linejoin:miter;stroke-opacity:1"
       d="M 0.13444496,4.8655701 0.94141536,4.6287452 2.8738309,4.7856768 4.6613498,4.5126167 6.4611224,4.7229571 7.7599701,4.3751423"
       id="path2829-5" />
    <path
       style="fill:none;stroke:#000000;stroke-width:0.264583px;stroke-linecap:butt;stroke-linejoin:miter;stroke-opacity:1"
       d="M 0.1234646,3.9194563 0.93043498,3.6826314 2.8628507,3.839563 4.6503696,3.5665029 6.4501422,3.7768433 7.7489899,3.4290285"
       id="path2829-3" />
    <path
       style="fill:none;stroke:#000000;stroke-width:0.264583px;stroke-linecap:butt;stroke-linejoin:miter;stroke-opacity:1"
       d="M 0.16879043,5.9484252 0.97576083,5.7116003 2.9081764,5.8685319 4.6956953,5.5954718 6.4954679,5.8058122 7.7943156,5.4579974"
       id="path2829-56" />
    <path
       style="fill:none;stroke:#000000;stroke-width:0.264583px;stroke-linecap:butt;stroke-linejoin:miter;stroke-opacity:1"
       d="M 0.40306911,6.9111278 1.2100395,6.6743029 3.1424551,6.8312345 4.929974,6.5581744 6.7297466,6.7685148 8.0285943,6.4207"
       id="path2829-2" />
</svg>
